/* XPM */
static char * arch_linux_xpm[] = {
"24 24 21 1",
" 	c None",
".	c #B970CE",
"+	c #B76CCC",
"@	c #A950C2",
"#	c #A84FC2",
"$	c #CB94DA",
"%	c #A64AC0",
"&	c #BE7BD1",
"*	c #C588D6",
"=	c #B365CA",
"-	c #A74DC1",
";	c #C384D5",
">	c #AD58C5",
",	c #BF7CD2",
"'	c #AB54C4",
")	c #C181D3",
"!	c #B05EC7",
"~	c #B160C8",
"{	c #B86FCD",
"]	c #AF5DC7",
"^	c #BC77D0",
"                        ",
"                        ",
"                        ",
"                        ",
"                        ",
"                        ",
"           .+           ",
"           @#           ",
"          $%%&          ",
"          *=-@          ",
"         ;->#%,         ",
"         '%%%%@         ",
"        )%%@@%%&        ",
"        @%!  ~%@        ",
"       &%%    %%.       ",
"       #%#    ##+       ",
"      {%-]    ~-'       ",
"      @^        ^@      ",
"                        ",
"                        ",
"                        ",
"                        ",
"                        ",
"                        "};
