<!DOCTYPE svg PUBLIC "-//W3C//DTD SVG 1.1//EN" "http://www.w3.org/Graphics/SVG/1.1/DTD/svg11.dtd">
<!-- Uploaded to: SVG Repo, www.svgrepo.com, Transformed by: SVG Repo Mixer Tools -->
<svg xmlns="http://www.w3.org/2000/svg" aria-label="Arch Linux" role="img" viewBox="0 0 512.00 512.00" width="64px" height="64px" fill="#000000">
<g id="SVGRepo_bgCarrier" stroke-width="0">
<path transform="translate(0, 0), scale(32)" fill="#ffffffff" d="M9.166.33a2.25 2.25 0 00-2.332 0l-5.25 3.182A2.25 2.25 0 00.5 5.436v5.128a2.25 2.25 0 001.084 1.924l5.25 3.182a2.25 2.25 0 002.332 0l5.25-3.182a2.25 2.25 0 001.084-1.924V5.436a2.25 2.25 0 00-1.084-1.924L9.166.33z" strokewidth="0"/>
</g>
<g id="SVGRepo_tracerCarrier" stroke-linecap="round" stroke-linejoin="round"/>
<g id="SVGRepo_iconCarrier">
<rect width="512" height="512" rx="15%" fill="#ffffff"/>
<path d="M256 72c-14 35-23 57-39 91 10 11 22 23 41 36-21-8-35-17-45-26-21 43-53 103-117 220 50-30 90-48 127-55-2-7-3-14-3-22v-1c1-33 18-58 38-56 20 1 36 29 35 62l-2 17c36 7 75 26 125 54l-27-50c-13-10-27-23-55-38 19 5 33 11 44 17-86-159-93-180-122-250z" fill="#a74cc1"/>
</g>
</svg>